<svg width="36" height="38" viewBox="0 0 36 38" fill="none" xmlns="http://www.w3.org/2000/svg">
<path d="M19.1387 1.80421C22.8562 1.95344 25.5328 2.99804 28.2093 5.08725C31.4807 7.47492 33.4138 10.9072 34.1573 15.0856C34.306 16.2794 34.4547 17.1748 34.4547 18.5179C34.4547 19.5625 34.6034 19.8609 34.7521 20.1594C34.9008 20.4579 35.1982 20.6071 35.3469 20.6071C35.4956 20.6071 35.6443 20.6071 35.6443 20.4579C35.9417 20.3086 36.0904 19.861 35.9417 19.4133C35.9417 19.264 35.793 19.1148 35.793 18.3687C35.793 16.8764 35.6443 15.981 35.3469 14.7872C34.4547 10.161 32.3729 6.43031 28.8041 3.89342C25.8302 1.65498 22.8562 0.610373 18.8413 0.311915C17.6517 0.311915 17.503 0.162685 17.503 0.162685C17.2056 -0.135773 16.7595 0.013456 16.4621 0.311915C16.6108 0.610373 16.6108 1.05806 16.9082 1.35652C17.503 1.65498 17.9491 1.80421 19.1387 1.80421Z" fill="#94CEFF"/>
<path d="M28.6554 11.9518C29.3989 13.2948 29.845 14.9364 29.845 16.5779C29.845 17.6225 29.9937 18.5179 30.8859 19.1148C31.0346 19.1148 31.0346 19.264 31.1833 19.264C31.4807 19.264 31.7781 19.1148 31.7781 18.8163C31.9268 18.5179 31.7781 18.0702 31.4807 17.7717C31.332 17.7717 31.1833 17.6225 31.1833 16.5779C31.1833 14.6379 30.7372 12.6979 29.845 11.2056C28.9528 9.41488 27.4658 7.92259 25.8302 7.02721C24.3432 6.13184 22.2614 5.53492 20.3283 5.38569C19.7335 5.38569 19.5848 5.23646 19.5848 5.08723C19.2874 4.78877 18.8413 4.78877 18.5439 5.08723C18.2465 5.38569 18.2465 5.83338 18.5439 6.13184C18.8413 6.57952 19.5848 6.72875 20.1796 6.72875C21.964 6.87798 23.7484 7.4749 25.0867 8.22105C26.5737 9.11642 27.7632 10.3103 28.6554 11.9518Z" fill="#94CEFF"/>
<path d="M26.4249 15.3841C26.2762 14.3395 26.1275 13.5933 25.8302 12.9964C25.0867 11.5041 23.8971 10.6087 21.8153 10.4595C21.0718 10.3103 21.0718 10.3103 20.9231 10.1611C20.6257 9.8626 20.1796 9.71337 19.8822 10.0118C19.5848 10.3103 19.5848 10.758 19.7335 11.0564C20.1796 11.5041 20.6257 11.6533 21.5179 11.8026C23.0049 11.9518 23.8971 12.5487 24.3432 13.5933C24.6406 14.1902 24.7893 14.7872 24.7893 15.5333C24.938 16.2795 25.0867 16.8764 25.5328 17.1748C25.6814 17.3241 25.8301 17.3241 25.9788 17.3241C26.2762 17.3241 26.4249 17.1748 26.5736 17.0256C26.871 16.7271 26.7223 16.2795 26.4249 15.981C26.5736 15.981 26.4249 15.981 26.4249 15.3841Z" fill="#94CEFF"/>
<path d="M34.8388 25.4612C34.3927 25.0135 32.0135 23.0735 30.9726 22.3274C30.0804 21.7305 28.8909 20.9843 28.1474 20.6859C27.2552 20.2382 26.2143 20.089 25.3221 20.3874C24.5786 20.6859 24.2812 20.9843 23.389 22.0289C22.9429 22.4766 22.6455 22.9243 22.6455 23.0735C22.6455 23.0735 22.4968 23.2228 22.3481 23.2228C21.902 23.372 21.1585 23.2228 19.8202 22.6259C18.6307 22.0289 17.7385 21.2828 16.5489 20.2382C15.508 19.3428 14.6158 18.149 14.021 17.2536C13.2775 16.0598 12.8314 14.5675 12.8314 13.9706C12.8314 13.6721 12.8314 13.2244 12.9801 13.0752L13.1288 12.9259C13.2775 12.7767 13.5749 12.6275 13.8723 12.329C15.2106 11.2844 15.6567 10.8367 15.8054 10.0906C15.9541 9.34445 15.8054 8.44907 15.2106 7.25523C14.3184 5.46448 11.4931 1.58452 10.3035 0.838376C10.1548 0.689146 9.70874 0.539917 9.56004 0.390688C8.96524 0.241459 8.22175 0.241459 7.77565 0.241459C7.18086 0.390688 6.43737 0.838376 4.95038 1.88298C4.20689 2.4799 3.0173 3.67373 2.5712 4.27065C1.82771 5.76294 1.97641 6.95678 2.7199 8.89676C3.76079 11.5829 5.09908 14.269 6.73476 16.9551C7.03216 17.4028 7.18086 17.7013 7.47826 18.149C7.77565 18.5967 8.07305 18.8951 8.37045 19.3428C11.047 23.0735 14.3184 26.2074 18.0359 28.7443L18.1846 28.8935C18.3333 29.0427 18.6307 29.1919 18.7794 29.3412L19.2254 29.6396C19.5228 29.7889 19.6715 29.9381 19.9689 30.0873L24.1325 32.475C24.4299 32.6242 24.7273 32.7734 25.0247 32.9227L25.4708 33.0719C25.9169 33.2211 26.363 33.5196 26.8091 33.6688C27.7013 33.9673 28.1474 34.1165 28.7422 34.1165C28.8909 34.1165 28.8909 34.1165 29.0396 34.1165C30.0804 34.1165 30.9726 33.6688 32.0135 32.9227C33.2031 32.0273 34.8388 30.0873 35.2849 28.8935C35.731 27.5504 35.5823 26.3566 34.8388 25.4612Z" fill="#94CEFF"/>
<path d="M2.45121 31.4822H3.06391V32.0971H2.45121V31.4822Z" fill="#94CEFF"/>
<path d="M2.45121 30.8673H3.06391V31.4822H2.45121V30.8673Z" fill="#94CEFF"/>
<path d="M2.45121 30.2524H3.06391V30.8673H2.45121V30.2524Z" fill="#94CEFF"/>
<path d="M2.45121 29.6375H3.06391V30.2524H2.45121V29.6375Z" fill="#94CEFF"/>
<path d="M2.45121 29.0227H3.06391V29.6375H2.45121V29.0227Z" fill="#94CEFF"/>
<path d="M2.45121 28.4078H3.06391V29.0227H2.45121V28.4078Z" fill="#94CEFF"/>
<path d="M2.45121 27.7929H3.06391V28.4078H2.45121V27.7929Z" fill="#94CEFF"/>
<path d="M2.45121 27.178H3.06391V27.7929H2.45121V27.178Z" fill="#94CEFF"/>
<path d="M3.06391 27.178H3.67661V27.7929L3.06391 27.7929V27.178Z" fill="#94CEFF"/>
<path d="M3.06391 27.7929L3.67661 27.7929V28.4078L3.06391 28.4078V27.7929Z" fill="#94CEFF"/>
<path d="M3.06391 28.4078L3.67661 28.4078V29.0227L3.06391 29.0227V28.4078Z" fill="#94CEFF"/>
<path d="M3.06391 29.0227L3.67661 29.0227V29.6375L3.06391 29.6375V29.0227Z" fill="#94CEFF"/>
<path d="M3.06391 29.6375L3.67661 29.6375V30.2524L3.06391 30.2524V29.6375Z" fill="#94CEFF"/>
<path d="M3.06391 30.2524L3.67661 30.2524V30.8673L3.06391 30.8673V30.2524Z" fill="#94CEFF"/>
<path d="M3.06391 30.8673L3.67661 30.8673V31.4822L3.06391 31.4822V30.8673Z" fill="#94CEFF"/>
<path d="M1.83851 27.7929H2.45121V28.4078L1.83851 28.4078V27.7929Z" fill="#94CEFF"/>
<path d="M4.90141 31.4822H5.51412V32.0971H4.90141V31.4822Z" fill="#94CEFF"/>
<path d="M4.90141 30.8673H5.51412V31.4822H4.90141V30.8673Z" fill="#94CEFF"/>
<path d="M4.90141 30.2524H5.51412V30.8673H4.90141V30.2524Z" fill="#94CEFF"/>
<path d="M4.90141 29.6375H5.51412V30.2524H4.90141V29.6375Z" fill="#94CEFF"/>
<path d="M4.90141 29.0227H5.51412V29.6375H4.90141V29.0227Z" fill="#94CEFF"/>
<path d="M4.90141 28.4078H5.51412V29.0227H4.90141V28.4078Z" fill="#94CEFF"/>
<path d="M4.90141 27.7929H5.51412V28.4078H4.90141V27.7929Z" fill="#94CEFF"/>
<path d="M4.90141 27.178H5.51412V27.7929H4.90141V27.178Z" fill="#94CEFF"/>
<path d="M5.51412 27.178H6.12681V27.7929L5.51412 27.7929V27.178Z" fill="#94CEFF"/>
<path d="M5.51412 27.7929L6.12681 27.7929V28.4078L5.51412 28.4078V27.7929Z" fill="#94CEFF"/>
<path d="M5.51412 28.4078L6.12681 28.4078V29.0227L5.51412 29.0227V28.4078Z" fill="#94CEFF"/>
<path d="M5.51412 29.0227L6.12681 29.0227V29.6375L5.51412 29.6375V29.0227Z" fill="#94CEFF"/>
<path d="M5.51412 29.6375L6.12681 29.6375V30.2524L5.51412 30.2524V29.6375Z" fill="#94CEFF"/>
<path d="M5.51412 30.2524L6.12681 30.2524V30.8673L5.51412 30.8673V30.2524Z" fill="#94CEFF"/>
<path d="M5.51412 30.8673L6.12681 30.8673V31.4822L5.51412 31.4822V30.8673Z" fill="#94CEFF"/>
<path d="M4.28871 27.7929H4.90141V28.4078L4.28871 28.4078V27.7929Z" fill="#94CEFF"/>
<path d="M6.73892 30.2524H7.35162V30.8673H6.73892V30.2524Z" fill="#94CEFF"/>
<path d="M7.35162 29.6375H7.96432V30.2524L7.35162 30.2524L7.35162 29.6375Z" fill="#94CEFF"/>
<path d="M7.96431 29.0227H8.57701V29.6375L7.96432 29.6375L7.96431 29.0227Z" fill="#94CEFF"/>
<path d="M8.57702 28.4078H9.18972V29.0227L8.57701 29.0227L8.57702 28.4078Z" fill="#94CEFF"/>
<path d="M9.18972 27.7929H9.80242V28.4078L9.18972 28.4078L9.18972 27.7929Z" fill="#94CEFF"/>
<path d="M9.80241 27.178H10.4151V27.7929L9.80242 27.7929L9.80241 27.178Z" fill="#94CEFF"/>
<path d="M9.80242 27.7929L10.4151 27.7929V28.4078H9.80242V27.7929Z" fill="#94CEFF"/>
<path d="M9.80242 28.4078H10.4151V29.0227H9.80241L9.80242 28.4078Z" fill="#94CEFF"/>
<path d="M9.80241 29.0227H10.4151V29.6375H9.80241V29.0227Z" fill="#94CEFF"/>
<path d="M9.80241 29.6375H10.4151V30.2524H9.80241V29.6375Z" fill="#94CEFF"/>
<path d="M9.80241 30.2524H10.4151V30.8673H9.80241V30.2524Z" fill="#94CEFF"/>
<path d="M9.18972 30.2524L9.80241 30.2524V30.8673H9.18972V30.2524Z" fill="#94CEFF"/>
<path d="M9.18972 29.6375L9.80241 29.6375V30.2524L9.18972 30.2524V29.6375Z" fill="#94CEFF"/>
<path d="M9.18972 29.0227H9.80241V29.6375L9.18972 29.6375L9.18972 29.0227Z" fill="#94CEFF"/>
<path d="M9.18972 28.4078L9.80242 28.4078L9.80241 29.0227H9.18972V28.4078Z" fill="#94CEFF"/>
<path d="M9.18972 30.8673H9.80241L9.80242 31.4822H9.18972V30.8673Z" fill="#94CEFF"/>
<path d="M9.18972 31.4822H9.80242V32.0971H9.18972V31.4822Z" fill="#94CEFF"/>
<path d="M9.18972 32.0971H9.80242V32.712H9.18972V32.0971Z" fill="#94CEFF"/>
<path d="M9.18972 32.712H9.80242V33.3269H9.18972V32.712Z" fill="#94CEFF"/>
<path d="M9.80242 32.0971L10.4151 32.0971V32.712H9.80242V32.0971Z" fill="#94CEFF"/>
<path d="M9.80242 31.4822L10.4151 31.4822V32.0971L9.80242 32.0971V31.4822Z" fill="#94CEFF"/>
<path d="M9.80241 30.8673H10.4151V31.4822L9.80242 31.4822L9.80241 30.8673Z" fill="#94CEFF"/>
<path d="M8.57702 30.8673L9.18972 30.8673V31.4822H8.57702V30.8673Z" fill="#94CEFF"/>
<path d="M7.96431 30.8673H8.57702V31.4822H7.96431V30.8673Z" fill="#94CEFF"/>
<path d="M7.35162 30.8673L7.96431 30.8673V31.4822H7.35162L7.35162 30.8673Z" fill="#94CEFF"/>
<path d="M6.73892 30.8673H7.35162L7.35162 31.4822H6.73892V30.8673Z" fill="#94CEFF"/>
<path d="M7.35162 30.2524L7.96432 30.2524L7.96431 30.8673L7.35162 30.8673V30.2524Z" fill="#94CEFF"/>
<path d="M7.96432 30.2524L8.57701 30.2524L8.57702 30.8673H7.96431L7.96432 30.2524Z" fill="#94CEFF"/>
<path d="M8.57701 30.2524H9.18972V30.8673L8.57702 30.8673L8.57701 30.2524Z" fill="#94CEFF"/>
<path d="M10.4151 30.2524L11.0278 30.2524V30.8673H10.4151V30.2524Z" fill="#94CEFF"/>
<path d="M9.18972 33.3269H9.80242V33.9417H9.18972V33.3269Z" fill="#94CEFF"/>
<path d="M9.80242 32.712H10.4151V33.3269H9.80242V32.712Z" fill="#94CEFF"/>
<path d="M0.402634 37.1919H0.805266V37.5959H0.402634V37.1919Z" fill="#94CEFF"/>
<path d="M0.805266 37.1919H1.20789V37.5959H0.805266V37.1919Z" fill="#94CEFF"/>
<path d="M1.20789 37.1919H1.61053V37.5959H1.20789V37.1919Z" fill="#94CEFF"/>
<path d="M1.61053 37.1919H2.01316V37.5959H1.61053V37.1919Z" fill="#94CEFF"/>
<path d="M0.805266 37.5959H1.20789V38H0.805263L0.805266 37.5959Z" fill="#94CEFF"/>
<path d="M1.20789 37.5959H1.61053V38H1.20789V37.5959Z" fill="#94CEFF"/>
<path d="M0.805263 36.7878H1.20789V37.1919H0.805266L0.805263 36.7878Z" fill="#94CEFF"/>
<path d="M1.20789 36.7878H1.61053V37.1919H1.20789V36.7878Z" fill="#94CEFF"/>
<path d="M1.2079 36.3837H1.61053V36.7878H1.20789L1.2079 36.3837Z" fill="#94CEFF"/>
<path d="M1.2079 35.9797H1.61053V36.3837H1.2079V35.9797Z" fill="#94CEFF"/>
<path d="M1.2079 35.5756H1.61053V35.9797H1.2079V35.5756Z" fill="#94CEFF"/>
<path d="M0.805263 35.5756H1.2079V35.9797L0.805263 35.9797V35.5756Z" fill="#94CEFF"/>
<path d="M0.805263 35.9797L1.2079 35.9797V36.3837H0.805263V35.9797Z" fill="#94CEFF"/>
<path d="M0.805263 36.3837H1.2079L1.20789 36.7878H0.805263V36.3837Z" fill="#94CEFF"/>
<path d="M1.2079 35.1715H1.61053V35.5756H1.2079V35.1715Z" fill="#94CEFF"/>
<path d="M0.805263 35.1715H1.2079V35.5756H0.805263V35.1715Z" fill="#94CEFF"/>
<path d="M0.402634 35.1715H0.805263V35.5756L0.402634 35.5756V35.1715Z" fill="#94CEFF"/>
<path d="M0 35.1715H0.402634V35.5756H0V35.1715Z" fill="#94CEFF"/>
<path d="M0.402634 34.7675H0.805266L0.805263 35.1715H0.402634V34.7675Z" fill="#94CEFF"/>
<path d="M0.805266 34.7675H1.20789L1.2079 35.1715H0.805263L0.805266 34.7675Z" fill="#94CEFF"/>
<path d="M1.61053 34.7675H2.01316V35.1715L1.61053 35.1715L1.61053 34.7675Z" fill="#94CEFF"/>
<path d="M2.01316 34.7675H2.41579V35.1715H2.01316V34.7675Z" fill="#94CEFF"/>
<path d="M2.41579 34.7675H2.81842V35.1715H2.41579V34.7675Z" fill="#94CEFF"/>
<path d="M2.01316 35.1715H2.41579V35.5756H2.01316L2.01316 35.1715Z" fill="#94CEFF"/>
<path d="M2.41579 35.1715H2.81842V35.5756H2.41579V35.1715Z" fill="#94CEFF"/>
<path d="M3.2183 37.1919H3.62093V37.5959H3.2183V37.1919Z" fill="#94CEFF"/>
<path d="M2.81567 37.1919H3.2183V37.5959H2.81567V37.1919Z" fill="#94CEFF"/>
<path d="M3.62093 37.1919H4.02356V37.5959H3.62093V37.1919Z" fill="#94CEFF"/>
<path d="M3.2183 37.5959H3.62093V38H3.2183V37.5959Z" fill="#94CEFF"/>
<path d="M3.62093 37.5959H4.02356V38H3.62093V37.5959Z" fill="#94CEFF"/>
<path d="M3.2183 36.3837H3.62093V36.7878H3.2183V36.3837Z" fill="#94CEFF"/>
<path d="M3.62093 36.3837H4.02356V36.7878H3.62093V36.3837Z" fill="#94CEFF"/>
<path d="M3.62093 35.9797H4.02356V36.3837H3.62093L3.62093 35.9797Z" fill="#94CEFF"/>
<path d="M3.62093 35.5756H4.02356V35.9797H3.62093V35.5756Z" fill="#94CEFF"/>
<path d="M3.2183 35.5756H3.62093V35.9797L3.2183 35.9797V35.5756Z" fill="#94CEFF"/>
<path d="M3.2183 35.9797L3.62093 35.9797L3.62093 36.3837H3.2183V35.9797Z" fill="#94CEFF"/>
<path d="M3.62093 35.1715H4.02356V35.5756H3.62093V35.1715Z" fill="#94CEFF"/>
<path d="M4.02357 34.7675H4.4262V35.1715L4.02356 35.1715L4.02357 34.7675Z" fill="#94CEFF"/>
<path d="M4.82883 34.7675H5.23146V35.1715H4.82883V34.7675Z" fill="#94CEFF"/>
<path d="M4.4262 34.7675H4.82883V35.1715H4.4262V34.7675Z" fill="#94CEFF"/>
<path d="M4.82883 35.1715H5.23146V35.5756H4.82883V35.1715Z" fill="#94CEFF"/>
<path d="M4.02356 37.1919H4.4262V37.5959H4.02356V37.1919Z" fill="#94CEFF"/>
<path d="M4.4262 35.1715H4.82883V35.5756H4.42619L4.4262 35.1715Z" fill="#94CEFF"/>
<path d="M5.23146 35.1715L5.63409 35.1715V35.5756H5.23146V35.1715Z" fill="#94CEFF"/>
<path d="M5.23146 35.5756H5.63409V35.9797H5.23146L5.23146 35.5756Z" fill="#94CEFF"/>
<path d="M4.82883 35.5756H5.23146L5.23146 35.9797H4.82883V35.5756Z" fill="#94CEFF"/>
<path d="M4.42619 35.9797L4.82883 35.9797L4.82883 36.3837H4.42619V35.9797Z" fill="#94CEFF"/>
<path d="M4.02356 35.9797H4.42619V36.3837H4.02356V35.9797Z" fill="#94CEFF"/>
<path d="M3.2183 36.7878H3.62093V37.1919H3.2183V36.7878Z" fill="#94CEFF"/>
<path d="M3.62093 36.7878H4.02356V37.1919H3.62093V36.7878Z" fill="#94CEFF"/>
<path d="M4.4262 37.1919H4.82883V37.5959H4.4262V37.1919Z" fill="#94CEFF"/>
<path d="M6.03593 37.1919H6.43857V37.5959H6.03593V37.1919Z" fill="#94CEFF"/>
<path d="M6.43857 37.1919H6.8412V37.5959H6.43857V37.1919Z" fill="#94CEFF"/>
<path d="M6.8412 37.1919H7.24383V37.5959H6.8412V37.1919Z" fill="#94CEFF"/>
<path d="M7.24383 37.1919H7.64646V37.5959H7.24383V37.1919Z" fill="#94CEFF"/>
<path d="M7.64646 37.1919H8.04909V37.5959H7.64646V37.1919Z" fill="#94CEFF"/>
<path d="M6.8412 37.5959H7.24383V38H6.8412L6.8412 37.5959Z" fill="#94CEFF"/>
<path d="M7.24383 37.5959H7.64646V38H7.24383V37.5959Z" fill="#94CEFF"/>
<path d="M6.43857 36.7878H6.8412V37.1919H6.43857L6.43857 36.7878Z" fill="#94CEFF"/>
<path d="M6.8412 36.7878H7.24383V37.1919H6.8412V36.7878Z" fill="#94CEFF"/>
<path d="M6.8412 36.3837H7.24383V36.7878H6.8412L6.8412 36.3837Z" fill="#94CEFF"/>
<path d="M6.8412 35.9797H7.24383V36.3837H6.8412V35.9797Z" fill="#94CEFF"/>
<path d="M6.43857 35.9797H6.8412V36.3837H6.43857V35.9797Z" fill="#94CEFF"/>
<path d="M6.43857 36.3837H6.8412L6.8412 36.7878H6.43857V36.3837Z" fill="#94CEFF"/>
<path d="M6.43857 35.5756H6.8412L6.8412 35.9797H6.43857V35.5756Z" fill="#94CEFF"/>
<path d="M6.8412 35.5756H7.24383V35.9797H6.8412L6.8412 35.5756Z" fill="#94CEFF"/>
<path d="M6.8412 35.1715H7.24383V35.5756H6.8412L6.8412 35.1715Z" fill="#94CEFF"/>
<path d="M6.8412 34.7675H7.24383V35.1715H6.8412V34.7675Z" fill="#94CEFF"/>
<path d="M6.43857 35.1715H6.8412L6.8412 35.5756H6.43857V35.1715Z" fill="#94CEFF"/>
<path d="M6.43857 34.7675H6.8412V35.1715H6.43857V34.7675Z" fill="#94CEFF"/>
<path d="M6.03593 34.7675H6.43857V35.1715L6.03593 35.1715V34.7675Z" fill="#94CEFF"/>
<path d="M7.24383 34.7675H7.64646V35.1715L7.24383 35.1715V34.7675Z" fill="#94CEFF"/>
<path d="M6.43857 34.3634H6.8412L6.8412 34.7675H6.43857V34.3634Z" fill="#94CEFF"/>
<path d="M6.8412 34.3634H7.24383V34.7675H6.8412L6.8412 34.3634Z" fill="#94CEFF"/>
<path d="M6.8412 33.9593H7.24383V34.3634H6.8412L6.8412 33.9593Z" fill="#94CEFF"/>
<path d="M6.43857 33.9593H6.8412L6.8412 34.3634H6.43857V33.9593Z" fill="#94CEFF"/>
<path d="M6.8412 33.5553H7.24383V33.9593H6.8412V33.5553Z" fill="#94CEFF"/>
<path d="M7.64646 34.7675H8.04909V35.1715H7.64646V34.7675Z" fill="#94CEFF"/>
<path d="M8.45526 35.1715H8.85789V35.5756H8.45526V35.1715Z" fill="#94CEFF"/>
<path d="M8.85789 35.1715H9.26053V35.5756H8.85789V35.1715Z" fill="#94CEFF"/>
<path d="M9.26053 35.1715H9.66316V35.5756H9.26053V35.1715Z" fill="#94CEFF"/>
<path d="M9.66316 35.1715H10.0658V35.5756H9.66316V35.1715Z" fill="#94CEFF"/>
<path d="M8.8579 34.7675H9.26053V35.1715H8.85789L8.8579 34.7675Z" fill="#94CEFF"/>
<path d="M9.26053 34.7675H9.66316V35.1715H9.26053V34.7675Z" fill="#94CEFF"/>
<path d="M10.4684 35.1715H10.8711V35.5756H10.4684V35.1715Z" fill="#94CEFF"/>
<path d="M10.8711 35.1715H11.2737V35.5756H10.8711V35.1715Z" fill="#94CEFF"/>
<path d="M11.2737 35.1715H11.6763V35.5756H11.2737V35.1715Z" fill="#94CEFF"/>
<path d="M11.6763 35.1715H12.0789V35.5756H11.6763V35.1715Z" fill="#94CEFF"/>
<path d="M10.8711 34.7675H11.2737V35.1715H10.8711L10.8711 34.7675Z" fill="#94CEFF"/>
<path d="M11.2737 34.7675H11.6763V35.1715H11.2737V34.7675Z" fill="#94CEFF"/>
<path d="M9.66316 35.5756H10.0658V35.9797H9.66316L9.66316 35.5756Z" fill="#94CEFF"/>
<path d="M9.26053 35.5756H9.66316L9.66316 35.9797H9.26053L9.26053 35.5756Z" fill="#94CEFF"/>
<path d="M9.26053 35.9797H9.66316L9.66316 36.3837H9.26053V35.9797Z" fill="#94CEFF"/>
<path d="M9.26053 36.3837H9.66316V36.7878H9.26053V36.3837Z" fill="#94CEFF"/>
<path d="M9.66316 36.3837H10.0658V36.7878H9.66316V36.3837Z" fill="#94CEFF"/>
<path d="M9.66316 36.7878H10.0658V37.1919H9.66316L9.66316 36.7878Z" fill="#94CEFF"/>
<path d="M9.66316 35.9797H10.0658V36.3837H9.66316L9.66316 35.9797Z" fill="#94CEFF"/>
<path d="M9.26053 36.7878H9.66316L9.66316 37.1919H9.26053V36.7878Z" fill="#94CEFF"/>
<path d="M10.8711 35.5756H11.2737V35.9797H10.8711L10.8711 35.5756Z" fill="#94CEFF"/>
<path d="M11.2737 35.5756H11.6763V35.9797H11.2737V35.5756Z" fill="#94CEFF"/>
<path d="M11.2737 35.9797H11.6763V36.3837H11.2737L11.2737 35.9797Z" fill="#94CEFF"/>
<path d="M11.2737 36.3837H11.6763V36.7878H11.2737V36.3837Z" fill="#94CEFF"/>
<path d="M11.2737 36.7878H11.6763V37.1919H11.2737V36.7878Z" fill="#94CEFF"/>
<path d="M10.8711 36.3837H11.2737V36.7878H10.8711V36.3837Z" fill="#94CEFF"/>
<path d="M10.8711 35.9797H11.2737L11.2737 36.3837H10.8711V35.9797Z" fill="#94CEFF"/>
<path d="M10.8711 36.7878H11.2737V37.1919H10.8711V36.7878Z" fill="#94CEFF"/>
<path d="M8.8579 37.1919L9.26053 37.1919L9.26053 37.5959H8.8579V37.1919Z" fill="#94CEFF"/>
<path d="M9.26053 37.1919H9.66316L9.66316 37.5959H9.26053L9.26053 37.1919Z" fill="#94CEFF"/>
<path d="M9.66316 37.1919H10.0658V37.5959H9.66316L9.66316 37.1919Z" fill="#94CEFF"/>
<path d="M10.0658 37.1919L10.4684 37.1919V37.5959H10.0658V37.1919Z" fill="#94CEFF"/>
<path d="M10.4684 37.1919L10.8711 37.1919L10.8711 37.5959H10.4684V37.1919Z" fill="#94CEFF"/>
<path d="M10.8711 37.1919H11.2737L11.2737 37.5959H10.8711L10.8711 37.1919Z" fill="#94CEFF"/>
<path d="M11.2737 37.1919H11.6763V37.5959H11.2737L11.2737 37.1919Z" fill="#94CEFF"/>
<path d="M11.6763 37.1919L12.0789 37.1919V37.5959H11.6763V37.1919Z" fill="#94CEFF"/>
<path d="M9.66316 37.5959H10.0658V38H9.66316L9.66316 37.5959Z" fill="#94CEFF"/>
<path d="M10.0658 37.5959H10.4684V38H10.0658V37.5959Z" fill="#94CEFF"/>
<path d="M12.0789 37.1919H12.4816V37.5959H12.0789V37.1919Z" fill="#94CEFF"/>
<path d="M11.6763 37.5959H12.0789V38H11.6763L11.6763 37.5959Z" fill="#94CEFF"/>
<path d="M11.2737 37.5959H11.6763L11.6763 38H11.2737L11.2737 37.5959Z" fill="#94CEFF"/>
<path d="M13.2837 37.1919H13.6863V37.5959H13.2837V37.1919Z" fill="#94CEFF"/>
<path d="M13.6863 37.1919H14.089V37.5959H13.6863V37.1919Z" fill="#94CEFF"/>
<path d="M14.089 37.1919H14.4916V37.5959H14.089V37.1919Z" fill="#94CEFF"/>
<path d="M14.4916 37.1919H14.8942V37.5959H14.4916V37.1919Z" fill="#94CEFF"/>
<path d="M13.6863 37.5959H14.089V38H13.6863L13.6863 37.5959Z" fill="#94CEFF"/>
<path d="M14.089 37.5959H14.4916V38H14.089V37.5959Z" fill="#94CEFF"/>
<path d="M13.6863 36.7878H14.089V37.1919H13.6863L13.6863 36.7878Z" fill="#94CEFF"/>
<path d="M14.089 36.7878H14.4916V37.1919H14.089V36.7878Z" fill="#94CEFF"/>
<path d="M14.089 36.3837H14.4916V36.7878H14.089L14.089 36.3837Z" fill="#94CEFF"/>
<path d="M14.089 35.9797H14.4916V36.3837H14.089V35.9797Z" fill="#94CEFF"/>
<path d="M14.089 35.5756H14.4916V35.9797H14.089V35.5756Z" fill="#94CEFF"/>
<path d="M13.6863 35.5756H14.089V35.9797L13.6863 35.9797V35.5756Z" fill="#94CEFF"/>
<path d="M13.6863 35.9797L14.089 35.9797V36.3837H13.6863V35.9797Z" fill="#94CEFF"/>
<path d="M13.6863 36.3837H14.089L14.089 36.7878H13.6863V36.3837Z" fill="#94CEFF"/>
<path d="M14.089 35.1715H14.4916V35.5756H14.089V35.1715Z" fill="#94CEFF"/>
<path d="M13.6863 35.1715H14.089V35.5756H13.6863V35.1715Z" fill="#94CEFF"/>
<path d="M13.2837 35.1715H13.6863V35.5756L13.2837 35.5756V35.1715Z" fill="#94CEFF"/>
<path d="M12.8811 35.1715H13.2837V35.5756H12.8811V35.1715Z" fill="#94CEFF"/>
<path d="M13.2837 34.7675H13.6863L13.6863 35.1715H13.2837V34.7675Z" fill="#94CEFF"/>
<path d="M13.6863 34.7675H14.089L14.089 35.1715H13.6863L13.6863 34.7675Z" fill="#94CEFF"/>
<path d="M14.4916 34.7675H14.8942V35.1715L14.4916 35.1715L14.4916 34.7675Z" fill="#94CEFF"/>
<path d="M14.8942 34.7675H15.2969V35.1715H14.8942V34.7675Z" fill="#94CEFF"/>
<path d="M15.2969 34.7675H15.6995V35.1715H15.2969V34.7675Z" fill="#94CEFF"/>
<path d="M14.8942 35.1715H15.2969V35.5756H14.8942L14.8942 35.1715Z" fill="#94CEFF"/>
<path d="M15.2969 35.1715H15.6995V35.5756H15.2969V35.1715Z" fill="#94CEFF"/>
<path d="M16.504 37.1919H16.9066V37.5959H16.504V37.1919Z" fill="#94CEFF"/>
<path d="M16.9066 37.1919H17.3092V37.5959H16.9066V37.1919Z" fill="#94CEFF"/>
<path d="M17.3092 37.1919H17.7119V37.5959H17.3092V37.1919Z" fill="#94CEFF"/>
<path d="M17.7119 37.1919H18.1145V37.5959H17.7119V37.1919Z" fill="#94CEFF"/>
<path d="M16.9066 37.5959H17.3092V38H16.9066L16.9066 37.5959Z" fill="#94CEFF"/>
<path d="M17.3092 37.5959H17.7119V38H17.3092V37.5959Z" fill="#94CEFF"/>
<path d="M18.5171 37.1919H18.9198V37.5959H18.5171V37.1919Z" fill="#94CEFF"/>
<path d="M18.9198 37.1919H19.3224V37.5959H18.9198V37.1919Z" fill="#94CEFF"/>
<path d="M19.3224 37.1919H19.725V37.5959H19.3224V37.1919Z" fill="#94CEFF"/>
<path d="M18.9198 37.5959H19.3224V38H18.9198L18.9198 37.5959Z" fill="#94CEFF"/>
<path d="M18.9198 36.7878H19.3224V37.1919H18.9198L18.9198 36.7878Z" fill="#94CEFF"/>
<path d="M18.5171 36.7878H18.9198L18.9198 37.1919H18.5171V36.7878Z" fill="#94CEFF"/>
<path d="M18.5171 36.3837H18.9198L18.9198 36.7878H18.5171V36.3837Z" fill="#94CEFF"/>
<path d="M18.5171 35.9797H18.9198V36.3837H18.5171V35.9797Z" fill="#94CEFF"/>
<path d="M18.9198 35.9797H19.3224V36.3837H18.9198V35.9797Z" fill="#94CEFF"/>
<path d="M18.9198 36.3837H19.3224V36.7878H18.9198L18.9198 36.3837Z" fill="#94CEFF"/>
<path d="M16.9066 36.7878H17.3092V37.1919H16.9066L16.9066 36.7878Z" fill="#94CEFF"/>
<path d="M17.3092 36.7878H17.7119V37.1919H17.3092V36.7878Z" fill="#94CEFF"/>
<path d="M17.3092 36.3837H17.7119V36.7878H17.3092L17.3092 36.3837Z" fill="#94CEFF"/>
<path d="M16.9066 36.3837H17.3092L17.3092 36.7878H16.9066V36.3837Z" fill="#94CEFF"/>
<path d="M16.9066 35.9797H17.3092L17.3092 36.3837H16.9066V35.9797Z" fill="#94CEFF"/>
<path d="M17.3092 35.9797H17.7119V36.3837H17.3092L17.3092 35.9797Z" fill="#94CEFF"/>
<path d="M18.9198 35.5756H19.3224V35.9797H18.9198L18.9198 35.5756Z" fill="#94CEFF"/>
<path d="M18.5171 35.5756H18.9198L18.9198 35.9797H18.5171V35.5756Z" fill="#94CEFF"/>
<path d="M17.3092 35.5756H17.7119V35.9797H17.3092L17.3092 35.5756Z" fill="#94CEFF"/>
<path d="M16.9066 35.1715H17.3092L17.3092 35.5756L16.9066 35.5756V35.1715Z" fill="#94CEFF"/>
<path d="M16.9066 35.5756L17.3092 35.5756L17.3092 35.9797H16.9066V35.5756Z" fill="#94CEFF"/>
<path d="M19.3224 35.1715H19.725V35.5756L19.3224 35.5756L19.3224 35.1715Z" fill="#94CEFF"/>
<path d="M18.9198 35.1715H19.3224L19.3224 35.5756H18.9198V35.1715Z" fill="#94CEFF"/>
<path d="M18.5171 35.1715H18.9198V35.5756H18.5171V35.1715Z" fill="#94CEFF"/>
<path d="M17.3092 35.1715H17.7119V35.5756H17.3092L17.3092 35.1715Z" fill="#94CEFF"/>
<path d="M17.7119 35.1715H18.1145V35.5756L17.7119 35.5756V35.1715Z" fill="#94CEFF"/>
<path d="M18.1145 35.1715H18.5171V35.5756L18.1145 35.5756V35.1715Z" fill="#94CEFF"/>
<path d="M16.504 35.1715H16.9066V35.5756H16.504V35.1715Z" fill="#94CEFF"/>
<path d="M16.1013 35.1715H16.504V35.5756H16.1013V35.1715Z" fill="#94CEFF"/>
<path d="M16.504 34.7675H16.9066L16.9066 35.1715H16.504V34.7675Z" fill="#94CEFF"/>
<path d="M16.9066 34.7675H17.3092V35.1715H16.9066L16.9066 34.7675Z" fill="#94CEFF"/>
<path d="M18.1145 34.7675H18.5171L18.5171 35.1715H18.1145V34.7675Z" fill="#94CEFF"/>
<path d="M18.5171 34.7675H18.9198L18.9198 35.1715H18.5171L18.5171 34.7675Z" fill="#94CEFF"/>
<path d="M21.3387 34.7675H21.7413V35.1715H21.3387V34.7675Z" fill="#94CEFF"/>
<path d="M21.7413 34.7675H22.144V35.1715H21.7413V34.7675Z" fill="#94CEFF"/>
<path d="M20.9361 35.1715L21.3387 35.1715L21.3387 35.5756H20.9361V35.1715Z" fill="#94CEFF"/>
<path d="M21.3387 35.1715H21.7413V35.5756H21.3387L21.3387 35.1715Z" fill="#94CEFF"/>
<path d="M21.7413 35.1715H22.144V35.5756H21.7413V35.1715Z" fill="#94CEFF"/>
<path d="M22.144 35.1715L22.5466 35.1715V35.5756H22.144V35.1715Z" fill="#94CEFF"/>
<path d="M22.5466 34.7675H22.9492V35.1715L22.5466 35.1715L22.5466 34.7675Z" fill="#94CEFF"/>
<path d="M20.5334 35.5756L20.9361 35.5756L20.9361 35.9797H20.5334V35.5756Z" fill="#94CEFF"/>
<path d="M20.5334 35.9797H20.9361V36.3837H20.5334V35.9797Z" fill="#94CEFF"/>
<path d="M22.5466 34.3634H22.9492V34.7675H22.5466V34.3634Z" fill="#94CEFF"/>
<path d="M22.5466 35.5756L22.9492 35.5756V35.9797H22.5466L22.5466 35.5756Z" fill="#94CEFF"/>
<path d="M20.9361 35.5756H21.3387V35.9797H20.9361L20.9361 35.5756Z" fill="#94CEFF"/>
<path d="M20.9361 35.9797H21.3387V36.3837H20.9361V35.9797Z" fill="#94CEFF"/>
<path d="M20.5334 36.3837H20.9361V36.7878H20.5334V36.3837Z" fill="#94CEFF"/>
<path d="M20.9361 36.3837H21.3387V36.7878H20.9361V36.3837Z" fill="#94CEFF"/>
<path d="M21.3387 36.3837H21.7413V36.7878H21.3387V36.3837Z" fill="#94CEFF"/>
<path d="M21.7413 35.9797H22.144V36.3837H21.7413L21.7413 35.9797Z" fill="#94CEFF"/>
<path d="M22.144 35.9797L22.5466 35.9797L22.5466 36.3837H22.144V35.9797Z" fill="#94CEFF"/>
<path d="M20.9361 36.7878H21.3387V37.1919H20.9361L20.9361 36.7878Z" fill="#94CEFF"/>
<path d="M20.5334 37.1919L20.9361 37.1919L20.9361 37.5959H20.5334V37.1919Z" fill="#94CEFF"/>
<path d="M20.9361 37.1919H21.3387V37.5959H20.9361L20.9361 37.1919Z" fill="#94CEFF"/>
<path d="M21.3387 37.1919L21.7413 37.1919V37.5959H21.3387V37.1919Z" fill="#94CEFF"/>
<path d="M21.7413 37.1919H22.144V37.5959H21.7413V37.1919Z" fill="#94CEFF"/>
<path d="M22.144 37.1919H22.5466V37.5959H22.144V37.1919Z" fill="#94CEFF"/>
<path d="M21.3387 37.5959H21.7413V38H21.3387L21.3387 37.5959Z" fill="#94CEFF"/>
<path d="M21.7413 37.5959H22.144V38H21.7413V37.5959Z" fill="#94CEFF"/>
<path d="M20.1308 37.5959L20.5334 37.5959L20.5334 38H20.1308V37.5959Z" fill="#94CEFF"/>
<path d="M22.144 36.3837H22.5466V36.7878H22.144L22.144 36.3837Z" fill="#94CEFF"/>
<path d="M22.144 36.7878H22.5466V37.1919H22.144L22.144 36.7878Z" fill="#94CEFF"/>
<path d="M22.5466 36.3837H22.9492V36.7878H22.5466V36.3837Z" fill="#94CEFF"/>
<path d="M22.5466 36.7878H22.9492V37.1919L22.5466 37.1919V36.7878Z" fill="#94CEFF"/>
</svg>
