<svg width="98" height="103" viewBox="0 0 98 103" fill="none" xmlns="http://www.w3.org/2000/svg">
<path d="M52.0611 4.89035C62.1734 5.29484 69.4542 8.12627 76.735 13.7891C85.6338 20.261 90.8922 29.5642 92.9146 40.8899C93.3191 44.1259 93.7236 46.5528 93.7236 50.1932C93.7236 53.0246 94.1281 53.8336 94.5326 54.6426C94.9371 55.4516 95.746 55.8561 96.1505 55.8561C96.555 55.8561 96.9595 55.8561 96.9595 55.4516C97.7685 55.0471 98.173 53.8336 97.7685 52.6202C97.7685 52.2157 97.364 51.8112 97.364 49.7887C97.364 45.7438 96.9595 43.3169 96.1505 40.081C93.7236 27.5418 88.0607 17.4295 78.353 10.5532C70.2632 4.48586 62.1734 1.65443 51.2522 0.845452C48.0162 0.845452 47.6117 0.440963 47.6117 0.440963C46.8028 -0.368017 45.5893 0.0364727 44.7803 0.845452C45.1848 1.65443 45.1848 2.8679 45.9938 3.67688C47.6117 4.48586 48.8252 4.89035 52.0611 4.89035Z" fill="#0017C8"/>
<path d="M77.9485 32.3956C79.9709 36.036 81.1844 40.4854 81.1844 44.9348C81.1844 47.7662 81.5889 50.1932 84.0158 51.8111C84.4203 51.8111 84.4203 52.2156 84.8248 52.2156C85.6338 52.2156 86.4428 51.8111 86.4428 51.0021C86.8473 50.1932 86.4428 48.9797 85.6338 48.1707C85.2293 48.1707 84.8248 47.7662 84.8248 44.9348C84.8248 39.6764 83.6113 34.4181 81.1844 30.3732C78.7575 25.5193 74.7126 21.4744 70.2632 19.0474C66.2183 16.6205 60.5554 15.0025 55.2971 14.5981C53.6791 14.5981 53.2746 14.1936 53.2746 13.7891C52.4656 12.9801 51.2522 12.9801 50.4432 13.7891C49.6342 14.5981 49.6342 15.8115 50.4432 16.6205C51.2522 17.834 53.2746 18.2385 54.8926 18.2385C59.7464 18.643 64.6003 20.2609 68.2407 22.2834C72.2856 24.7103 75.5215 27.9462 77.9485 32.3956Z" fill="#0017C8"/>
<path d="M71.8811 41.6989C71.4766 38.8675 71.0721 36.8451 70.2632 35.2271C68.2407 31.1822 65.0048 28.7553 59.3419 28.3508C57.3195 27.9463 57.3195 27.9463 56.915 27.5418C56.106 26.7328 54.8925 26.3283 54.0836 27.1373C53.2746 27.9463 53.2746 29.1598 53.6791 29.9687C54.8925 31.1822 56.106 31.5867 58.5329 31.9912C62.5778 32.3957 65.0048 34.0136 66.2183 36.8451C67.0272 38.463 67.4317 40.081 67.4317 42.1034C67.8362 44.1259 68.2407 45.7438 69.4542 46.5528C69.8587 46.9573 70.2632 46.9573 70.6676 46.9573C71.4766 46.9573 71.8811 46.5528 72.2856 46.1483C73.0946 45.3394 72.6901 44.1259 71.8811 43.3169C72.2856 43.3169 71.8811 43.3169 71.8811 41.6989Z" fill="#0017C8"/>
<path d="M94.7685 69.0133C93.555 67.7998 87.0832 62.5414 84.2517 60.519C81.8248 58.901 78.5889 56.8786 76.5664 56.0696C74.1395 54.8561 71.3081 54.4516 68.8811 55.2606C66.8587 56.0696 66.0497 56.8786 63.6228 59.71C62.4093 60.9235 61.6003 62.1369 61.6003 62.5414C61.6003 62.5414 61.1958 62.9459 60.7913 62.9459C59.5779 63.3504 57.5554 62.9459 53.915 61.328C50.6791 59.71 48.2521 57.6876 45.0162 54.8561C42.1848 52.4292 39.7579 49.1933 38.1399 46.7663C36.1175 43.5304 34.904 39.4855 34.904 37.8675C34.904 37.0586 34.904 35.8451 35.3085 35.4406L35.713 35.0361C36.1175 34.6316 36.9264 34.2271 37.7354 33.4182C41.3758 30.5867 42.5893 29.3733 42.9938 27.3508C43.3983 25.3284 42.9938 22.9014 41.3758 19.6655C38.9489 14.8116 31.2636 4.29489 28.0277 2.27244C27.6232 1.86795 26.4097 1.46346 26.0052 1.05897C24.3872 0.65448 22.3648 0.65448 21.1513 0.65448C19.5334 1.05897 17.5109 2.27244 13.466 5.10387C11.4436 6.72183 8.20765 9.95775 6.99418 11.5757C4.97173 15.6206 5.37622 18.8565 7.39867 24.1149C10.2301 31.3957 13.8705 38.6765 18.3199 45.9573C19.1289 47.1708 19.5334 47.9798 20.3423 49.1933C21.1513 50.4067 21.9603 51.2157 22.7693 52.4292C30.0501 62.5414 38.9489 71.0357 49.0611 77.912L49.4656 78.3165C49.8701 78.721 50.6791 79.1255 51.0836 79.53L52.297 80.339C53.106 80.7435 53.5105 81.148 54.3195 81.5525L65.6452 88.0243C66.4542 88.4288 67.2632 88.8333 68.0722 89.2378L69.2856 89.6423C70.4991 90.0467 71.7126 90.8557 72.926 91.2602C75.353 92.0692 76.5664 92.4737 78.1844 92.4737C78.5889 92.4737 78.5889 92.4737 78.9934 92.4737C81.8248 92.4737 84.2517 91.2602 87.0832 89.2378C90.3191 86.8108 94.7685 81.5525 95.9819 78.3165C97.1954 74.6761 96.7909 71.4402 94.7685 69.0133Z" fill="#0017C8"/>
<path d="M6.66779 85.3333H8.33445V87H6.66779V85.3333Z" fill="#0017C8"/>
<path d="M6.66779 83.6667H8.33445V85.3333H6.66779V83.6667Z" fill="#0017C8"/>
<path d="M6.66779 82H8.33445V83.6667H6.66779V82Z" fill="#0017C8"/>
<path d="M6.66779 80.3333H8.33445V82H6.66779V80.3333Z" fill="#0017C8"/>
<path d="M6.66779 78.6667H8.33445V80.3333H6.66779V78.6667Z" fill="#0017C8"/>
<path d="M6.66779 77H8.33445V78.6667H6.66779V77Z" fill="#0017C8"/>
<path d="M6.66779 75.3333H8.33445V77H6.66779V75.3333Z" fill="#0017C8"/>
<path d="M6.66779 73.6667H8.33445V75.3333H6.66779V73.6667Z" fill="#0017C8"/>
<path d="M8.33445 73.6667H10.0011V75.3333L8.33445 75.3333V73.6667Z" fill="#0017C8"/>
<path d="M8.33445 75.3333L10.0011 75.3333V77L8.33445 77V75.3333Z" fill="#0017C8"/>
<path d="M8.33445 77L10.0011 77V78.6667L8.33445 78.6667V77Z" fill="#0017C8"/>
<path d="M8.33445 78.6667L10.0011 78.6667V80.3333L8.33445 80.3333V78.6667Z" fill="#0017C8"/>
<path d="M8.33445 80.3333L10.0011 80.3333V82L8.33445 82V80.3333Z" fill="#0017C8"/>
<path d="M8.33445 82L10.0011 82V83.6667L8.33445 83.6667V82Z" fill="#0017C8"/>
<path d="M8.33445 83.6667L10.0011 83.6667V85.3333L8.33445 85.3333V83.6667Z" fill="#0017C8"/>
<path d="M5.00111 75.3333H6.66779V77L5.00111 77V75.3333Z" fill="#0017C8"/>
<path d="M13.3328 85.3333H14.9995V87H13.3328V85.3333Z" fill="#0017C8"/>
<path d="M13.3328 83.6667H14.9995V85.3333H13.3328V83.6667Z" fill="#0017C8"/>
<path d="M13.3328 82H14.9995V83.6667H13.3328V82Z" fill="#0017C8"/>
<path d="M13.3328 80.3333H14.9995V82H13.3328V80.3333Z" fill="#0017C8"/>
<path d="M13.3328 78.6667H14.9995V80.3333H13.3328V78.6667Z" fill="#0017C8"/>
<path d="M13.3328 77H14.9995V78.6667H13.3328V77Z" fill="#0017C8"/>
<path d="M13.3328 75.3333H14.9995V77H13.3328V75.3333Z" fill="#0017C8"/>
<path d="M13.3328 73.6667H14.9995V75.3333H13.3328V73.6667Z" fill="#0017C8"/>
<path d="M14.9995 73.6667H16.6661V75.3333L14.9995 75.3333V73.6667Z" fill="#0017C8"/>
<path d="M14.9995 75.3333L16.6661 75.3333V77L14.9995 77V75.3333Z" fill="#0017C8"/>
<path d="M14.9995 77L16.6661 77V78.6667L14.9995 78.6667V77Z" fill="#0017C8"/>
<path d="M14.9995 78.6667L16.6661 78.6667V80.3333L14.9995 80.3333V78.6667Z" fill="#0017C8"/>
<path d="M14.9995 80.3333L16.6661 80.3333V82L14.9995 82V80.3333Z" fill="#0017C8"/>
<path d="M14.9995 82L16.6661 82V83.6667L14.9995 83.6667V82Z" fill="#0017C8"/>
<path d="M14.9995 83.6667L16.6661 83.6667V85.3333L14.9995 85.3333V83.6667Z" fill="#0017C8"/>
<path d="M11.6662 75.3333H13.3328V77L11.6662 77V75.3333Z" fill="#0017C8"/>
<path d="M18.3312 82H19.9979V83.6667H18.3312V82Z" fill="#0017C8"/>
<path d="M19.9979 80.3333H21.6645V82L19.9979 82L19.9979 80.3333Z" fill="#0017C8"/>
<path d="M21.6645 78.6667H23.3312V80.3333L21.6645 80.3333L21.6645 78.6667Z" fill="#0017C8"/>
<path d="M23.3312 77H24.9979V78.6667L23.3312 78.6667L23.3312 77Z" fill="#0017C8"/>
<path d="M24.9979 75.3333H26.6645V77L24.9979 77L24.9979 75.3333Z" fill="#0017C8"/>
<path d="M26.6645 73.6667H28.3312V75.3333L26.6645 75.3333L26.6645 73.6667Z" fill="#0017C8"/>
<path d="M26.6645 75.3333L28.3312 75.3333V77H26.6645V75.3333Z" fill="#0017C8"/>
<path d="M26.6645 77H28.3312V78.6667H26.6645L26.6645 77Z" fill="#0017C8"/>
<path d="M26.6645 78.6667H28.3312V80.3333H26.6645V78.6667Z" fill="#0017C8"/>
<path d="M26.6645 80.3333H28.3312V82H26.6645V80.3333Z" fill="#0017C8"/>
<path d="M26.6645 82H28.3312V83.6667H26.6645V82Z" fill="#0017C8"/>
<path d="M24.9979 82L26.6645 82V83.6667H24.9979V82Z" fill="#0017C8"/>
<path d="M24.9979 80.3333L26.6645 80.3333V82L24.9979 82V80.3333Z" fill="#0017C8"/>
<path d="M24.9979 78.6667H26.6645V80.3333L24.9979 80.3333L24.9979 78.6667Z" fill="#0017C8"/>
<path d="M24.9979 77L26.6645 77L26.6645 78.6667H24.9979V77Z" fill="#0017C8"/>
<path d="M24.9979 83.6667H26.6645L26.6645 85.3333H24.9979V83.6667Z" fill="#0017C8"/>
<path d="M24.9979 85.3333H26.6645V87H24.9979V85.3333Z" fill="#0017C8"/>
<path d="M24.9979 87H26.6645V88.6667H24.9979V87Z" fill="#0017C8"/>
<path d="M24.9979 88.6667H26.6645V90.3333H24.9979V88.6667Z" fill="#0017C8"/>
<path d="M26.6645 87L28.3312 87V88.6667H26.6645V87Z" fill="#0017C8"/>
<path d="M26.6645 85.3333L28.3312 85.3333V87L26.6645 87V85.3333Z" fill="#0017C8"/>
<path d="M26.6645 83.6667H28.3312V85.3333L26.6645 85.3333L26.6645 83.6667Z" fill="#0017C8"/>
<path d="M23.3312 83.6667L24.9979 83.6667V85.3333H23.3312V83.6667Z" fill="#0017C8"/>
<path d="M21.6645 83.6667H23.3312V85.3333H21.6645V83.6667Z" fill="#0017C8"/>
<path d="M19.9979 83.6667L21.6645 83.6667V85.3333H19.9979L19.9979 83.6667Z" fill="#0017C8"/>
<path d="M18.3312 83.6667H19.9979L19.9979 85.3333H18.3312V83.6667Z" fill="#0017C8"/>
<path d="M19.9979 82L21.6645 82L21.6645 83.6667L19.9979 83.6667V82Z" fill="#0017C8"/>
<path d="M21.6645 82L23.3312 82L23.3312 83.6667H21.6645L21.6645 82Z" fill="#0017C8"/>
<path d="M23.3312 82H24.9979V83.6667L23.3312 83.6667L23.3312 82Z" fill="#0017C8"/>
<path d="M28.3312 82L29.9979 82V83.6667H28.3312V82Z" fill="#0017C8"/>
<path d="M24.9979 90.3333H26.6645V92H24.9979V90.3333Z" fill="#0017C8"/>
<path d="M26.6645 88.6667H28.3312V90.3333H26.6645V88.6667Z" fill="#0017C8"/>
<path d="M1.09525 100.81H2.19048V101.905H1.09525V100.81Z" fill="#0017C8"/>
<path d="M2.19048 100.81H3.28571V101.905H2.19048V100.81Z" fill="#0017C8"/>
<path d="M3.28571 100.81H4.38096V101.905H3.28571V100.81Z" fill="#0017C8"/>
<path d="M4.38096 100.81H5.47619V101.905H4.38096V100.81Z" fill="#0017C8"/>
<path d="M2.19048 101.905H3.28571V103H2.19048L2.19048 101.905Z" fill="#0017C8"/>
<path d="M3.28571 101.905H4.38096V103H3.28571V101.905Z" fill="#0017C8"/>
<path d="M2.19048 99.7143H3.28571V100.81H2.19048L2.19048 99.7143Z" fill="#0017C8"/>
<path d="M3.28571 99.7143H4.38096V100.81H3.28571V99.7143Z" fill="#0017C8"/>
<path d="M3.28572 98.619H4.38096V99.7143H3.28571L3.28572 98.619Z" fill="#0017C8"/>
<path d="M3.28572 97.5238H4.38096V98.619H3.28572V97.5238Z" fill="#0017C8"/>
<path d="M3.28572 96.4286H4.38096V97.5238H3.28572V96.4286Z" fill="#0017C8"/>
<path d="M2.19048 96.4286H3.28572V97.5238L2.19048 97.5238V96.4286Z" fill="#0017C8"/>
<path d="M2.19048 97.5238L3.28572 97.5238V98.619L2.19048 98.619V97.5238Z" fill="#0017C8"/>
<path d="M2.19048 98.619L3.28572 98.619L3.28571 99.7143H2.19048V98.619Z" fill="#0017C8"/>
<path d="M3.28572 95.3333H4.38096V96.4286H3.28572V95.3333Z" fill="#0017C8"/>
<path d="M2.19048 95.3333H3.28572V96.4286H2.19048V95.3333Z" fill="#0017C8"/>
<path d="M1.09525 95.3333H2.19048V96.4286L1.09525 96.4286V95.3333Z" fill="#0017C8"/>
<path d="M0 95.3333H1.09525V96.4286H0V95.3333Z" fill="#0017C8"/>
<path d="M1.09525 94.2381H2.19048L2.19048 95.3333H1.09525V94.2381Z" fill="#0017C8"/>
<path d="M2.19048 94.2381H3.28571L3.28572 95.3333H2.19048L2.19048 94.2381Z" fill="#0017C8"/>
<path d="M4.38095 94.2381H5.47619V95.3333L4.38096 95.3333L4.38095 94.2381Z" fill="#0017C8"/>
<path d="M5.47619 94.2381H6.57143V95.3333H5.47619V94.2381Z" fill="#0017C8"/>
<path d="M6.57143 94.2381H7.66666V95.3333H6.57143V94.2381Z" fill="#0017C8"/>
<path d="M5.47619 95.3333H6.57143V96.4286H5.4762L5.47619 95.3333Z" fill="#0017C8"/>
<path d="M6.57143 95.3333H7.66666V96.4286H6.57143V95.3333Z" fill="#0017C8"/>
<path d="M8.75443 100.81H9.84966V101.905H8.75443V100.81Z" fill="#0017C8"/>
<path d="M7.65918 100.81H8.75443V101.905H7.65918V100.81Z" fill="#0017C8"/>
<path d="M9.84966 100.81H10.9449V101.905H9.84966V100.81Z" fill="#0017C8"/>
<path d="M8.75443 101.905H9.84966V103H8.75443V101.905Z" fill="#0017C8"/>
<path d="M9.84966 101.905H10.9449V103H9.84966V101.905Z" fill="#0017C8"/>
<path d="M8.75443 98.619H9.84966V99.7143H8.75443V98.619Z" fill="#0017C8"/>
<path d="M9.84966 98.619H10.9449V99.7143H9.84966V98.619Z" fill="#0017C8"/>
<path d="M9.84966 97.5238H10.9449V98.619H9.84966L9.84966 97.5238Z" fill="#0017C8"/>
<path d="M9.84966 96.4286H10.9449V97.5238H9.84966V96.4286Z" fill="#0017C8"/>
<path d="M8.75443 96.4286H9.84966V97.5238L8.75443 97.5238V96.4286Z" fill="#0017C8"/>
<path d="M8.75443 97.5238L9.84966 97.5238L9.84966 98.619H8.75443V97.5238Z" fill="#0017C8"/>
<path d="M9.84966 95.3333H10.9449V96.4286H9.84966V95.3333Z" fill="#0017C8"/>
<path d="M10.9449 94.2381H12.0401V95.3333L10.9449 95.3333L10.9449 94.2381Z" fill="#0017C8"/>
<path d="M13.1354 94.2381H14.2306V95.3333H13.1354V94.2381Z" fill="#0017C8"/>
<path d="M12.0401 94.2381H13.1354V95.3333H12.0401V94.2381Z" fill="#0017C8"/>
<path d="M13.1354 95.3333H14.2306V96.4286H13.1354V95.3333Z" fill="#0017C8"/>
<path d="M10.9449 100.81H12.0401V101.905H10.9449V100.81Z" fill="#0017C8"/>
<path d="M12.0401 95.3333H13.1354V96.4286H12.0401L12.0401 95.3333Z" fill="#0017C8"/>
<path d="M14.2306 95.3333L15.3258 95.3333V96.4286H14.2306V95.3333Z" fill="#0017C8"/>
<path d="M14.2306 96.4286H15.3258V97.5238H14.2306L14.2306 96.4286Z" fill="#0017C8"/>
<path d="M13.1354 96.4286H14.2306L14.2306 97.5238H13.1354V96.4286Z" fill="#0017C8"/>
<path d="M12.0401 97.5238L13.1354 97.5238L13.1354 98.619H12.0401V97.5238Z" fill="#0017C8"/>
<path d="M10.9449 97.5238H12.0401V98.619L10.9449 98.619V97.5238Z" fill="#0017C8"/>
<path d="M8.75443 99.7143H9.84966V100.81H8.75443V99.7143Z" fill="#0017C8"/>
<path d="M9.84966 99.7143H10.9449V100.81H9.84966V99.7143Z" fill="#0017C8"/>
<path d="M12.0401 100.81H13.1354V101.905H12.0401V100.81Z" fill="#0017C8"/>
<path d="M16.4189 100.81H17.5142V101.905H16.4189V100.81Z" fill="#0017C8"/>
<path d="M17.5142 100.81H18.6094V101.905H17.5142V100.81Z" fill="#0017C8"/>
<path d="M18.6094 100.81H19.7047V101.905H18.6094V100.81Z" fill="#0017C8"/>
<path d="M19.7047 100.81H20.7999V101.905H19.7047V100.81Z" fill="#0017C8"/>
<path d="M20.7999 100.81H21.8951V101.905H20.7999V100.81Z" fill="#0017C8"/>
<path d="M18.6094 101.905H19.7047V103H18.6094L18.6094 101.905Z" fill="#0017C8"/>
<path d="M19.7047 101.905H20.7999V103H19.7047V101.905Z" fill="#0017C8"/>
<path d="M17.5142 99.7143H18.6094V100.81H17.5142L17.5142 99.7143Z" fill="#0017C8"/>
<path d="M18.6094 99.7143H19.7047V100.81H18.6094V99.7143Z" fill="#0017C8"/>
<path d="M18.6094 98.619H19.7047V99.7143H18.6094L18.6094 98.619Z" fill="#0017C8"/>
<path d="M18.6094 97.5238H19.7047V98.619H18.6094V97.5238Z" fill="#0017C8"/>
<path d="M17.5142 97.5238H18.6094V98.619L17.5142 98.619V97.5238Z" fill="#0017C8"/>
<path d="M17.5142 98.619L18.6094 98.619L18.6094 99.7143H17.5142V98.619Z" fill="#0017C8"/>
<path d="M17.5142 96.4286H18.6094L18.6094 97.5238H17.5142V96.4286Z" fill="#0017C8"/>
<path d="M18.6094 96.4286H19.7047V97.5238H18.6094L18.6094 96.4286Z" fill="#0017C8"/>
<path d="M18.6094 95.3333H19.7047V96.4286H18.6094L18.6094 95.3333Z" fill="#0017C8"/>
<path d="M18.6094 94.2381H19.7047V95.3333H18.6094V94.2381Z" fill="#0017C8"/>
<path d="M17.5142 95.3333H18.6094L18.6094 96.4286H17.5142V95.3333Z" fill="#0017C8"/>
<path d="M17.5142 94.2381H18.6094V95.3333H17.5142V94.2381Z" fill="#0017C8"/>
<path d="M16.4189 94.2381H17.5142V95.3333L16.4189 95.3333V94.2381Z" fill="#0017C8"/>
<path d="M19.7047 94.2381H20.7999V95.3333L19.7047 95.3333V94.2381Z" fill="#0017C8"/>
<path d="M17.5142 93.1429H18.6094L18.6094 94.2381H17.5142V93.1429Z" fill="#0017C8"/>
<path d="M18.6094 93.1429H19.7047V94.2381H18.6094L18.6094 93.1429Z" fill="#0017C8"/>
<path d="M18.6094 92.0476H19.7047V93.1429H18.6094L18.6094 92.0476Z" fill="#0017C8"/>
<path d="M17.5142 92.0476H18.6094L18.6094 93.1429H17.5142V92.0476Z" fill="#0017C8"/>
<path d="M18.6094 90.9524H19.7047V92.0476H18.6094V90.9524Z" fill="#0017C8"/>
<path d="M20.7999 94.2381H21.8951V95.3333H20.7999V94.2381Z" fill="#0017C8"/>
<path d="M23 95.3333H24.0952V96.4286H23V95.3333Z" fill="#0017C8"/>
<path d="M24.0952 95.3333H25.1905V96.4286H24.0952V95.3333Z" fill="#0017C8"/>
<path d="M25.1905 95.3333H26.2857V96.4286H25.1905V95.3333Z" fill="#0017C8"/>
<path d="M26.2857 95.3333H27.381V96.4286H26.2857V95.3333Z" fill="#0017C8"/>
<path d="M24.0952 94.2381H25.1905V95.3333H24.0952L24.0952 94.2381Z" fill="#0017C8"/>
<path d="M25.1905 94.2381H26.2857V95.3333H25.1905V94.2381Z" fill="#0017C8"/>
<path d="M28.4762 95.3333H29.5714V96.4286H28.4762V95.3333Z" fill="#0017C8"/>
<path d="M29.5714 95.3333H30.6667V96.4286H29.5714V95.3333Z" fill="#0017C8"/>
<path d="M30.6667 95.3333H31.7619V96.4286H30.6667V95.3333Z" fill="#0017C8"/>
<path d="M31.7619 95.3333H32.8571V96.4286H31.7619V95.3333Z" fill="#0017C8"/>
<path d="M29.5714 94.2381H30.6667V95.3333H29.5714L29.5714 94.2381Z" fill="#0017C8"/>
<path d="M30.6667 94.2381H31.7619V95.3333H30.6667V94.2381Z" fill="#0017C8"/>
<path d="M26.2857 96.4286H27.381V97.5238H26.2857L26.2857 96.4286Z" fill="#0017C8"/>
<path d="M25.1905 96.4286H26.2857L26.2857 97.5238H25.1905L25.1905 96.4286Z" fill="#0017C8"/>
<path d="M25.1905 97.5238H26.2857L26.2857 98.619H25.1905V97.5238Z" fill="#0017C8"/>
<path d="M25.1905 98.619H26.2857V99.7143H25.1905V98.619Z" fill="#0017C8"/>
<path d="M26.2857 98.619L27.381 98.619V99.7143H26.2857V98.619Z" fill="#0017C8"/>
<path d="M26.2857 99.7143H27.381V100.81H26.2857L26.2857 99.7143Z" fill="#0017C8"/>
<path d="M26.2857 97.5238H27.381V98.619L26.2857 98.619L26.2857 97.5238Z" fill="#0017C8"/>
<path d="M25.1905 99.7143H26.2857L26.2857 100.81H25.1905V99.7143Z" fill="#0017C8"/>
<path d="M29.5714 96.4286H30.6667V97.5238H29.5714L29.5714 96.4286Z" fill="#0017C8"/>
<path d="M30.6667 96.4286H31.7619V97.5238H30.6667V96.4286Z" fill="#0017C8"/>
<path d="M30.6667 97.5238H31.7619V98.619H30.6667L30.6667 97.5238Z" fill="#0017C8"/>
<path d="M30.6667 98.619H31.7619V99.7143H30.6667V98.619Z" fill="#0017C8"/>
<path d="M30.6667 99.7143H31.7619V100.81H30.6667V99.7143Z" fill="#0017C8"/>
<path d="M29.5714 98.619L30.6667 98.619V99.7143H29.5714V98.619Z" fill="#0017C8"/>
<path d="M29.5714 97.5238H30.6667L30.6667 98.619L29.5714 98.619V97.5238Z" fill="#0017C8"/>
<path d="M29.5714 99.7143H30.6667V100.81H29.5714V99.7143Z" fill="#0017C8"/>
<path d="M24.0952 100.81L25.1905 100.81L25.1905 101.905H24.0952V100.81Z" fill="#0017C8"/>
<path d="M25.1905 100.81H26.2857L26.2857 101.905H25.1905L25.1905 100.81Z" fill="#0017C8"/>
<path d="M26.2857 100.81H27.381V101.905H26.2857L26.2857 100.81Z" fill="#0017C8"/>
<path d="M27.381 100.81L28.4762 100.81V101.905H27.381V100.81Z" fill="#0017C8"/>
<path d="M28.4762 100.81L29.5714 100.81L29.5714 101.905H28.4762V100.81Z" fill="#0017C8"/>
<path d="M29.5714 100.81H30.6667L30.6667 101.905H29.5714L29.5714 100.81Z" fill="#0017C8"/>
<path d="M30.6667 100.81H31.7619V101.905H30.6667L30.6667 100.81Z" fill="#0017C8"/>
<path d="M31.7619 100.81L32.8571 100.81V101.905H31.7619V100.81Z" fill="#0017C8"/>
<path d="M26.2857 101.905H27.381V103H26.2857L26.2857 101.905Z" fill="#0017C8"/>
<path d="M27.381 101.905H28.4762V103H27.381V101.905Z" fill="#0017C8"/>
<path d="M32.8571 100.81H33.9524V101.905H32.8571V100.81Z" fill="#0017C8"/>
<path d="M31.7619 101.905H32.8571V103H31.7619L31.7619 101.905Z" fill="#0017C8"/>
<path d="M30.6667 101.905H31.7619L31.7619 103H30.6667L30.6667 101.905Z" fill="#0017C8"/>
<path d="M36.1343 100.81H37.2295V101.905H36.1343V100.81Z" fill="#0017C8"/>
<path d="M37.2295 100.81H38.3248V101.905H37.2295V100.81Z" fill="#0017C8"/>
<path d="M38.3248 100.81H39.42V101.905H38.3248V100.81Z" fill="#0017C8"/>
<path d="M39.42 100.81H40.5153V101.905H39.42V100.81Z" fill="#0017C8"/>
<path d="M37.2295 101.905H38.3248V103H37.2295L37.2295 101.905Z" fill="#0017C8"/>
<path d="M38.3248 101.905H39.42V103H38.3248V101.905Z" fill="#0017C8"/>
<path d="M37.2295 99.7143H38.3248V100.81H37.2295L37.2295 99.7143Z" fill="#0017C8"/>
<path d="M38.3248 99.7143H39.42V100.81H38.3248V99.7143Z" fill="#0017C8"/>
<path d="M38.3248 98.619H39.42V99.7143H38.3248L38.3248 98.619Z" fill="#0017C8"/>
<path d="M38.3248 97.5238H39.42V98.619H38.3248V97.5238Z" fill="#0017C8"/>
<path d="M38.3248 96.4286H39.42V97.5238H38.3248V96.4286Z" fill="#0017C8"/>
<path d="M37.2295 96.4286H38.3248V97.5238L37.2295 97.5238V96.4286Z" fill="#0017C8"/>
<path d="M37.2295 97.5238L38.3248 97.5238V98.619L37.2295 98.619V97.5238Z" fill="#0017C8"/>
<path d="M37.2295 98.619L38.3248 98.619L38.3248 99.7143H37.2295V98.619Z" fill="#0017C8"/>
<path d="M38.3248 95.3333H39.42V96.4286H38.3248V95.3333Z" fill="#0017C8"/>
<path d="M37.2295 95.3333H38.3248V96.4286H37.2295V95.3333Z" fill="#0017C8"/>
<path d="M36.1343 95.3333H37.2295V96.4286L36.1343 96.4286V95.3333Z" fill="#0017C8"/>
<path d="M35.0391 95.3333H36.1343V96.4286H35.0391V95.3333Z" fill="#0017C8"/>
<path d="M36.1343 94.2381H37.2295L37.2295 95.3333H36.1343V94.2381Z" fill="#0017C8"/>
<path d="M37.2295 94.2381H38.3248L38.3248 95.3333H37.2295L37.2295 94.2381Z" fill="#0017C8"/>
<path d="M39.42 94.2381H40.5153V95.3333L39.42 95.3333L39.42 94.2381Z" fill="#0017C8"/>
<path d="M40.5153 94.2381H41.6105V95.3333H40.5153V94.2381Z" fill="#0017C8"/>
<path d="M41.6105 94.2381H42.7057V95.3333H41.6105V94.2381Z" fill="#0017C8"/>
<path d="M40.5153 95.3333H41.6105V96.4286H40.5153L40.5153 95.3333Z" fill="#0017C8"/>
<path d="M41.6105 95.3333H42.7057V96.4286H41.6105V95.3333Z" fill="#0017C8"/>
<path d="M44.8941 100.81H45.9893V101.905H44.8941V100.81Z" fill="#0017C8"/>
<path d="M45.9893 100.81H47.0845V101.905H45.9893V100.81Z" fill="#0017C8"/>
<path d="M47.0845 100.81H48.1798V101.905H47.0845V100.81Z" fill="#0017C8"/>
<path d="M48.1798 100.81H49.275V101.905H48.1798V100.81Z" fill="#0017C8"/>
<path d="M45.9893 101.905H47.0845V103H45.9893L45.9893 101.905Z" fill="#0017C8"/>
<path d="M47.0845 101.905H48.1798V103H47.0845V101.905Z" fill="#0017C8"/>
<path d="M50.3703 100.81H51.4655V101.905H50.3703V100.81Z" fill="#0017C8"/>
<path d="M51.4655 100.81H52.5607V101.905H51.4655V100.81Z" fill="#0017C8"/>
<path d="M52.5607 100.81H53.656V101.905H52.5607V100.81Z" fill="#0017C8"/>
<path d="M51.4655 101.905H52.5607V103H51.4655L51.4655 101.905Z" fill="#0017C8"/>
<path d="M51.4655 99.7143H52.5607V100.81H51.4655L51.4655 99.7143Z" fill="#0017C8"/>
<path d="M50.3703 99.7143H51.4655L51.4655 100.81H50.3703V99.7143Z" fill="#0017C8"/>
<path d="M50.3703 98.619H51.4655L51.4655 99.7143H50.3703V98.619Z" fill="#0017C8"/>
<path d="M50.3703 97.5238H51.4655V98.619H50.3703V97.5238Z" fill="#0017C8"/>
<path d="M51.4655 97.5238H52.5607V98.619L51.4655 98.619V97.5238Z" fill="#0017C8"/>
<path d="M51.4655 98.619L52.5607 98.619V99.7143H51.4655L51.4655 98.619Z" fill="#0017C8"/>
<path d="M45.9893 99.7143H47.0845V100.81H45.9893L45.9893 99.7143Z" fill="#0017C8"/>
<path d="M47.0845 99.7143H48.1798V100.81H47.0845V99.7143Z" fill="#0017C8"/>
<path d="M47.0845 98.619H48.1798V99.7143H47.0845L47.0845 98.619Z" fill="#0017C8"/>
<path d="M45.9893 98.619H47.0845L47.0845 99.7143H45.9893V98.619Z" fill="#0017C8"/>
<path d="M45.9893 97.5238H47.0845L47.0845 98.619H45.9893V97.5238Z" fill="#0017C8"/>
<path d="M47.0845 97.5238H48.1798V98.619H47.0845L47.0845 97.5238Z" fill="#0017C8"/>
<path d="M51.4655 96.4286H52.5607V97.5238H51.4655L51.4655 96.4286Z" fill="#0017C8"/>
<path d="M50.3703 96.4286H51.4655L51.4655 97.5238H50.3703V96.4286Z" fill="#0017C8"/>
<path d="M47.0845 96.4286H48.1798V97.5238H47.0845L47.0845 96.4286Z" fill="#0017C8"/>
<path d="M45.9893 95.3333H47.0845L47.0845 96.4286L45.9893 96.4286V95.3333Z" fill="#0017C8"/>
<path d="M45.9893 96.4286L47.0845 96.4286L47.0845 97.5238H45.9893V96.4286Z" fill="#0017C8"/>
<path d="M52.5607 95.3333H53.656V96.4286L52.5607 96.4286L52.5607 95.3333Z" fill="#0017C8"/>
<path d="M51.4655 95.3333H52.5607L52.5607 96.4286H51.4655V95.3333Z" fill="#0017C8"/>
<path d="M50.3703 95.3333H51.4655V96.4286H50.3703V95.3333Z" fill="#0017C8"/>
<path d="M47.0845 95.3333H48.1798V96.4286H47.0845L47.0845 95.3333Z" fill="#0017C8"/>
<path d="M48.1798 95.3333H49.275V96.4286L48.1798 96.4286V95.3333Z" fill="#0017C8"/>
<path d="M49.275 95.3333H50.3703V96.4286L49.275 96.4286V95.3333Z" fill="#0017C8"/>
<path d="M44.8941 95.3333H45.9893V96.4286H44.8941V95.3333Z" fill="#0017C8"/>
<path d="M43.7988 95.3333H44.8941V96.4286H43.7988V95.3333Z" fill="#0017C8"/>
<path d="M44.8941 94.2381H45.9893L45.9893 95.3333H44.8941V94.2381Z" fill="#0017C8"/>
<path d="M45.9893 94.2381H47.0845V95.3333H45.9893L45.9893 94.2381Z" fill="#0017C8"/>
<path d="M49.275 94.2381H50.3703L50.3703 95.3333H49.275L49.275 94.2381Z" fill="#0017C8"/>
<path d="M50.3703 94.2381H51.4655L51.4655 95.3333H50.3703L50.3703 94.2381Z" fill="#0017C8"/>
<path d="M58.0455 94.2381H59.1407V95.3333H58.0455V94.2381Z" fill="#0017C8"/>
<path d="M59.1407 94.2381H60.236V95.3333H59.1407V94.2381Z" fill="#0017C8"/>
<path d="M56.9502 95.3333L58.0455 95.3333L58.0455 96.4286H56.9502V95.3333Z" fill="#0017C8"/>
<path d="M58.0455 95.3333H59.1407V96.4286H58.0455L58.0455 95.3333Z" fill="#0017C8"/>
<path d="M59.1407 95.3333H60.236V96.4286H59.1407V95.3333Z" fill="#0017C8"/>
<path d="M60.236 95.3333L61.3312 95.3333V96.4286H60.236V95.3333Z" fill="#0017C8"/>
<path d="M61.3312 94.2381H62.4264V95.3333L61.3312 95.3333L61.3312 94.2381Z" fill="#0017C8"/>
<path d="M55.855 96.4286L56.9502 96.4286L56.9502 97.5238H55.855V96.4286Z" fill="#0017C8"/>
<path d="M55.855 97.5238H56.9502V98.619H55.855V97.5238Z" fill="#0017C8"/>
<path d="M61.3312 93.1429H62.4264V94.2381H61.3312V93.1429Z" fill="#0017C8"/>
<path d="M61.3312 96.4286L62.4264 96.4286V97.5238H61.3312L61.3312 96.4286Z" fill="#0017C8"/>
<path d="M56.9502 96.4286H58.0455V97.5238H56.9502L56.9502 96.4286Z" fill="#0017C8"/>
<path d="M56.9502 97.5238H58.0455V98.619H56.9502V97.5238Z" fill="#0017C8"/>
<path d="M55.855 98.619H56.9502V99.7143H55.855V98.619Z" fill="#0017C8"/>
<path d="M56.9502 98.619H58.0455V99.7143H56.9502V98.619Z" fill="#0017C8"/>
<path d="M58.0455 98.619L59.1407 98.619V99.7143H58.0455V98.619Z" fill="#0017C8"/>
<path d="M59.1407 97.5238H60.236V98.619L59.1407 98.619L59.1407 97.5238Z" fill="#0017C8"/>
<path d="M60.236 97.5238L61.3312 97.5238L61.3312 98.619H60.236V97.5238Z" fill="#0017C8"/>
<path d="M56.9502 99.7143H58.0455V100.81H56.9502L56.9502 99.7143Z" fill="#0017C8"/>
<path d="M55.855 100.81L56.9502 100.81L56.9502 101.905H55.855V100.81Z" fill="#0017C8"/>
<path d="M56.9502 100.81H58.0455V101.905H56.9502L56.9502 100.81Z" fill="#0017C8"/>
<path d="M58.0455 100.81L59.1407 100.81V101.905H58.0455V100.81Z" fill="#0017C8"/>
<path d="M59.1407 100.81H60.236V101.905H59.1407V100.81Z" fill="#0017C8"/>
<path d="M60.236 100.81H61.3312V101.905H60.236V100.81Z" fill="#0017C8"/>
<path d="M58.0455 101.905H59.1407V103H58.0455L58.0455 101.905Z" fill="#0017C8"/>
<path d="M59.1407 101.905H60.236V103H59.1407V101.905Z" fill="#0017C8"/>
<path d="M54.7598 101.905L55.855 101.905L55.855 103H54.7598V101.905Z" fill="#0017C8"/>
<path d="M60.236 98.619H61.3312V99.7143H60.236L60.236 98.619Z" fill="#0017C8"/>
<path d="M60.236 99.7143H61.3312V100.81H60.236L60.236 99.7143Z" fill="#0017C8"/>
<path d="M61.3312 98.619L62.4264 98.619V99.7143H61.3312V98.619Z" fill="#0017C8"/>
<path d="M61.3312 99.7143H62.4264V100.81L61.3312 100.81V99.7143Z" fill="#0017C8"/>
</svg>
